<svg width="20" height="20" viewBox="0 0 20 20" fill="none" xmlns="http://www.w3.org/2000/svg">
<path d="M6.53033 7.46967C6.23744 7.17678 5.76256 7.17678 5.46967 7.46967C5.17678 7.76256 5.17678 8.23744 5.46967 8.53033L6.53033 7.46967ZM14.5303 8.53033C14.8232 8.23744 14.8232 7.76256 14.5303 7.46967C14.2374 7.17678 13.7626 7.17678 13.4697 7.46967L14.5303 8.53033ZM5.46967 8.53033L9.43431 12.495L10.495 11.4343L6.53033 7.46967L5.46967 8.53033ZM10.5657 12.495L14.5303 8.53033L13.4697 7.46967L9.50503 11.4343L10.5657 12.495ZM9.43431 12.495C9.74673 12.8074 10.2533 12.8074 10.5657 12.495L9.50503 11.4343C9.77839 11.1609 10.2216 11.1609 10.495 11.4343L9.43431 12.495Z" fill="#7A7A7A"/>
</svg>
