<svg width="115" height="24" viewBox="0 0 115 24" fill="none" xmlns="http://www.w3.org/2000/svg">
<path d="M0 8C0 6.14006 0 5.21009 0.204445 4.44709C0.759248 2.37653 2.37653 0.759248 4.44709 0.204445C5.21009 0 6.14006 0 8 0H14.4C17.7603 0 19.4405 0 20.7239 0.653961C21.8529 1.2292 22.7708 2.14708 23.346 3.27606C24 4.55953 24 6.23968 24 9.6V16C24 17.8599 24 18.7899 23.7956 19.5529C23.2408 21.6235 21.6235 23.2408 19.5529 23.7956C18.7899 24 17.8599 24 16 24V24C12.2801 24 10.4202 24 8.89417 23.5911C4.75307 22.4815 1.5185 19.2469 0.40889 15.1058C0 13.5798 0 11.7199 0 8V8Z" fill="#0FAAEC"/>
<path d="M19 19H13C12.0713 19 11.6069 19 11.2162 18.956C7.97091 18.5903 5.40968 16.0291 5.04401 12.7838C5 12.3931 5 11.9287 5 11V11" stroke="white" stroke-width="3" stroke-linecap="round"/>
<path d="M12 9V13" stroke="white" stroke-width="3" stroke-linecap="round"/>
<path d="M5 9V12" stroke="white" stroke-width="3" stroke-linecap="round"/>
<path d="M18 9V13" stroke="white" stroke-width="3" stroke-linecap="round"/>
<path d="M29.5341 19V8.09091H31.1534V9.79545H31.2955C31.5227 9.21307 31.8897 8.76089 32.3963 8.43892C32.9029 8.11222 33.5114 7.94886 34.2216 7.94886C34.9413 7.94886 35.5402 8.11222 36.0185 8.43892C36.5014 8.76089 36.8778 9.21307 37.1477 9.79545H37.2614C37.5407 9.23201 37.9598 8.78456 38.5185 8.45312C39.0772 8.11695 39.7472 7.94886 40.5284 7.94886C41.5038 7.94886 42.3016 8.25426 42.9219 8.86506C43.5421 9.47112 43.8523 10.4157 43.8523 11.6989V19H42.1761V11.6989C42.1761 10.8939 41.956 10.3187 41.5156 9.97301C41.0753 9.62737 40.5568 9.45455 39.9602 9.45455C39.1932 9.45455 38.599 9.68655 38.1776 10.1506C37.7562 10.6098 37.5455 11.1922 37.5455 11.8977V19H35.8409V11.5284C35.8409 10.9081 35.6397 10.4086 35.2372 10.0298C34.8348 9.64631 34.3163 9.45455 33.6818 9.45455C33.2462 9.45455 32.839 9.57055 32.4602 9.80256C32.0862 10.0346 31.7831 10.3565 31.5511 10.7685C31.3239 11.1757 31.2102 11.6468 31.2102 12.1818V19H29.5341ZM50.1487 19.2273C49.1639 19.2273 48.2998 18.9929 47.5564 18.5241C46.8178 18.0554 46.2401 17.3996 45.8234 16.5568C45.4115 15.714 45.2055 14.7292 45.2055 13.6023C45.2055 12.4659 45.4115 11.474 45.8234 10.6264C46.2401 9.77888 46.8178 9.12074 47.5564 8.65199C48.2998 8.18324 49.1639 7.94886 50.1487 7.94886C51.1336 7.94886 51.9953 8.18324 52.7339 8.65199C53.4773 9.12074 54.055 9.77888 54.4669 10.6264C54.8836 11.474 55.0919 12.4659 55.0919 13.6023C55.0919 14.7292 54.8836 15.714 54.4669 16.5568C54.055 17.3996 53.4773 18.0554 52.7339 18.5241C51.9953 18.9929 51.1336 19.2273 50.1487 19.2273ZM50.1487 17.7216C50.8968 17.7216 51.5124 17.5298 51.9953 17.1463C52.4783 16.7628 52.8357 16.2585 53.0678 15.6335C53.2998 15.0085 53.4158 14.3314 53.4158 13.6023C53.4158 12.8731 53.2998 12.1937 53.0678 11.5639C52.8357 10.9342 52.4783 10.4252 51.9953 10.0369C51.5124 9.64867 50.8968 9.45455 50.1487 9.45455C49.4006 9.45455 48.7851 9.64867 48.3021 10.0369C47.8192 10.4252 47.4617 10.9342 47.2297 11.5639C46.9977 12.1937 46.8817 12.8731 46.8817 13.6023C46.8817 14.3314 46.9977 15.0085 47.2297 15.6335C47.4617 16.2585 47.8192 16.7628 48.3021 17.1463C48.7851 17.5298 49.4006 17.7216 50.1487 17.7216ZM56.4505 19V8.09091H58.0698V9.73864H58.1835C58.3823 9.19886 58.7422 8.76089 59.263 8.42472C59.7838 8.08854 60.371 7.92045 61.0244 7.92045C61.1475 7.92045 61.3013 7.92282 61.486 7.92756C61.6707 7.93229 61.8103 7.93939 61.905 7.94886V9.65341C61.8482 9.6392 61.718 9.6179 61.5144 9.58949C61.3156 9.55634 61.1049 9.53977 60.8823 9.53977C60.352 9.53977 59.8785 9.65104 59.4619 9.87358C59.0499 10.0914 58.7232 10.3944 58.4817 10.7827C58.245 11.1662 58.1266 11.6042 58.1266 12.0966V19H56.4505ZM66.9337 19.2273C65.8826 19.2273 64.9759 18.9953 64.2136 18.5312C63.456 18.0625 62.8712 17.4091 62.4593 16.571C62.0521 15.7282 61.8485 14.7481 61.8485 13.6307C61.8485 12.5133 62.0521 11.5284 62.4593 10.6761C62.8712 9.81913 63.4442 9.15152 64.1781 8.6733C64.9167 8.19034 65.7784 7.94886 66.7633 7.94886C67.3315 7.94886 67.8925 8.04356 68.4465 8.23295C69.0005 8.42235 69.5048 8.73011 69.9593 9.15625C70.4139 9.57765 70.7761 10.1364 71.046 10.8324C71.3158 11.5284 71.4508 12.3854 71.4508 13.4034V14.1136H63.0417V12.6648H69.7462C69.7462 12.0492 69.6231 11.5 69.3769 11.017C69.1354 10.5341 68.7898 10.1529 68.34 9.87358C67.8949 9.59422 67.3693 9.45455 66.7633 9.45455C66.0957 9.45455 65.518 9.62026 65.0303 9.9517C64.5474 10.2784 64.1757 10.7045 63.9153 11.2301C63.6549 11.7557 63.5246 12.3191 63.5246 12.9205V13.8864C63.5246 14.7102 63.6667 15.4086 63.9508 15.9815C64.2396 16.5497 64.6397 16.983 65.1511 17.2812C65.6624 17.5748 66.2567 17.7216 66.9337 17.7216C67.3741 17.7216 67.7718 17.66 68.1269 17.5369C68.4868 17.4091 68.7969 17.2197 69.0573 16.9688C69.3177 16.7131 69.519 16.3958 69.661 16.017L71.2803 16.4716C71.1099 17.0208 70.8234 17.5038 70.421 17.9205C70.0185 18.3324 69.5213 18.6544 68.9295 18.8864C68.3376 19.1136 67.6724 19.2273 66.9337 19.2273ZM72.5306 19V4.45455H82.1613V6.99006H75.6059V10.456H81.5221V12.9915H75.6059V19H72.5306ZM85.9471 19.206C85.2511 19.206 84.6308 19.0852 84.0863 18.8438C83.5418 18.5975 83.1109 18.2353 82.7937 17.7571C82.4812 17.2741 82.3249 16.6728 82.3249 15.9531C82.3249 15.3471 82.4362 14.8381 82.6587 14.4261C82.8813 14.0142 83.1843 13.6828 83.5678 13.4318C83.9513 13.1809 84.387 12.9915 84.8746 12.8636C85.3671 12.7358 85.8832 12.6458 86.4229 12.5938C87.0574 12.5275 87.5688 12.4659 87.957 12.4091C88.3453 12.3475 88.627 12.2576 88.8022 12.1392C88.9774 12.0208 89.065 11.8456 89.065 11.6136V11.571C89.065 11.1212 88.9229 10.7732 88.6388 10.527C88.3595 10.2808 87.9618 10.1577 87.4457 10.1577C86.9012 10.1577 86.4679 10.2784 86.146 10.5199C85.824 10.7566 85.6109 11.0549 85.5067 11.4148L82.7085 11.1875C82.8505 10.5246 83.1299 9.9517 83.5465 9.46875C83.9632 8.98106 84.5006 8.60701 85.1587 8.34659C85.8216 8.08144 86.5887 7.94886 87.4599 7.94886C88.0659 7.94886 88.646 8.01989 89.1999 8.16193C89.7586 8.30398 90.2534 8.52415 90.6843 8.82244C91.1199 9.12074 91.4632 9.50426 91.7141 9.97301C91.9651 10.437 92.0906 10.9934 92.0906 11.642V19H89.2212V17.4872H89.136C88.9608 17.8281 88.7264 18.1288 88.4329 18.3892C88.1393 18.6449 87.7866 18.8461 87.3746 18.9929C86.9627 19.1349 86.4869 19.206 85.9471 19.206ZM86.8136 17.1179C87.2586 17.1179 87.6516 17.0303 87.9925 16.8551C88.3335 16.6752 88.601 16.4337 88.7951 16.1307C88.9892 15.8277 89.0863 15.4844 89.0863 15.1009V13.9432C88.9916 14.0047 88.8614 14.0616 88.6957 14.1136C88.5347 14.161 88.3524 14.206 88.1488 14.2486C87.9452 14.2865 87.7416 14.322 87.538 14.3551C87.3344 14.3835 87.1497 14.4096 86.984 14.4332C86.6289 14.4853 86.3188 14.5682 86.0536 14.6818C85.7885 14.7955 85.5825 14.9493 85.4357 15.1435C85.2889 15.3329 85.2156 15.5696 85.2156 15.8537C85.2156 16.2656 85.3647 16.5805 85.663 16.7983C85.966 17.0114 86.3496 17.1179 86.8136 17.1179ZM96.2634 12.6932V19H93.2379V8.09091H96.1214V10.0156H96.2492C96.4907 9.38116 96.8955 8.87926 97.4637 8.50994C98.0319 8.13589 98.7208 7.94886 99.5305 7.94886C100.288 7.94886 100.949 8.11458 101.512 8.44602C102.075 8.77746 102.513 9.25095 102.826 9.86648C103.138 10.4773 103.295 11.2064 103.295 12.054V19H100.269V12.5938C100.274 11.9261 100.103 11.4053 99.7577 11.0312C99.4121 10.6525 98.9362 10.4631 98.3302 10.4631C97.923 10.4631 97.5631 10.5507 97.2506 10.7259C96.9429 10.901 96.7014 11.1567 96.5262 11.4929C96.3558 11.8243 96.2682 12.2244 96.2634 12.6932ZM113.556 11.2017L110.786 11.3722C110.739 11.1354 110.637 10.9223 110.481 10.733C110.324 10.5388 110.118 10.3849 109.863 10.2713C109.612 10.1529 109.311 10.0938 108.961 10.0938C108.492 10.0938 108.097 10.1932 107.775 10.392C107.453 10.5862 107.292 10.8466 107.292 11.1733C107.292 11.4337 107.396 11.6539 107.604 11.8338C107.813 12.0137 108.17 12.1581 108.677 12.267L110.651 12.6648C111.712 12.8826 112.502 13.233 113.023 13.7159C113.544 14.1989 113.805 14.8333 113.805 15.6193C113.805 16.3343 113.594 16.9616 113.172 17.5014C112.756 18.0412 112.183 18.4626 111.454 18.7656C110.729 19.0639 109.894 19.2131 108.947 19.2131C107.502 19.2131 106.352 18.9124 105.495 18.3111C104.643 17.705 104.143 16.8812 103.996 15.8395L106.972 15.6832C107.062 16.1236 107.28 16.4598 107.626 16.6918C107.971 16.919 108.414 17.0327 108.954 17.0327C109.484 17.0327 109.91 16.9309 110.232 16.7273C110.559 16.5189 110.725 16.2514 110.729 15.9247C110.725 15.6501 110.609 15.4252 110.381 15.25C110.154 15.0701 109.804 14.9328 109.33 14.8381L107.441 14.4616C106.376 14.2486 105.582 13.8793 105.062 13.3537C104.546 12.8281 104.287 12.1581 104.287 11.3438C104.287 10.643 104.477 10.0393 104.856 9.53267C105.239 9.02604 105.777 8.63542 106.468 8.3608C107.164 8.08617 107.978 7.94886 108.911 7.94886C110.289 7.94886 111.373 8.24006 112.164 8.82244C112.959 9.40483 113.423 10.1979 113.556 11.2017Z" fill="#0FAAEC"/>
</svg>
