<svg width="24" height="24" viewBox="0 0 24 24" fill="none" xmlns="http://www.w3.org/2000/svg">
<path d="M0 8C0 6.14006 0 5.21009 0.204445 4.44709C0.759248 2.37653 2.37653 0.759248 4.44709 0.204445C5.21009 0 6.14006 0 8 0H14.4C17.7603 0 19.4405 0 20.7239 0.653961C21.8529 1.2292 22.7708 2.14708 23.346 3.27606C24 4.55953 24 6.23968 24 9.6V16C24 17.8599 24 18.7899 23.7956 19.5529C23.2408 21.6235 21.6235 23.2408 19.5529 23.7956C18.7899 24 17.8599 24 16 24V24C12.2801 24 10.4202 24 8.89417 23.5911C4.75307 22.4815 1.5185 19.2469 0.40889 15.1058C0 13.5798 0 11.7199 0 8V8Z" fill="#0FAAEC"/>
<path d="M19 19H13C12.0713 19 11.6069 19 11.2162 18.956C7.97091 18.5903 5.40968 16.0291 5.04401 12.7838C5 12.3931 5 11.9287 5 11V11" stroke="white" stroke-width="3" stroke-linecap="round"/>
<path d="M12 9V13" stroke="white" stroke-width="3" stroke-linecap="round"/>
<path d="M5 9V12" stroke="white" stroke-width="3" stroke-linecap="round"/>
<path d="M18 9V13" stroke="white" stroke-width="3" stroke-linecap="round"/>
</svg>
