<svg width="20" height="20" viewBox="0 0 20 20" fill="none" xmlns="http://www.w3.org/2000/svg">
<path d="M5.53033 10.4697C5.23744 10.1768 4.76256 10.1768 4.46967 10.4697C4.17678 10.7626 4.17678 11.2374 4.46967 11.5303L5.53033 10.4697ZM15.5644 6.49388C15.8372 6.18215 15.8056 5.70833 15.4939 5.43557C15.1822 5.16281 14.7083 5.19439 14.4356 5.50612L15.5644 6.49388ZM7.96221 13.9622L7.43188 14.4925L7.96221 13.9622ZM8.03519 13.9598L8.59963 14.4537L8.03519 13.9598ZM4.46967 11.5303L7.43188 14.4925L8.49254 13.4319L5.53033 10.4697L4.46967 11.5303ZM8.59963 14.4537L15.5644 6.49388L14.4356 5.50612L7.47076 13.4659L8.59963 14.4537ZM7.43188 14.4925C7.75911 14.8198 8.29489 14.8019 8.59963 14.4537L7.47076 13.4659C7.73741 13.1612 8.20622 13.1456 8.49254 13.4319L7.43188 14.4925Z" fill="white"/>
</svg>
