<svg width="16" height="16" viewBox="0 0 16 16" fill="none" xmlns="http://www.w3.org/2000/svg">
<path d="M2.21799 4.09202L1.54973 3.75153L1.54973 3.75153L2.21799 4.09202ZM2.21799 10.908L2.88624 10.5675H2.88624L2.21799 10.908ZM3.09202 11.782L3.43251 11.1138H3.43251L3.09202 11.782ZM6.8453 12L7.49482 11.625C7.36084 11.3929 7.11325 11.25 6.8453 11.25V12ZM7.9567 13.925L8.60622 13.55L8.60622 13.55L7.9567 13.925ZM8.0433 13.925L7.39378 13.55L7.39378 13.55L8.0433 13.925ZM9.1547 12V11.25C8.88675 11.25 8.63916 11.3929 8.50518 11.625L9.1547 12ZM12.908 11.782L12.5675 11.1138H12.5675L12.908 11.782ZM13.782 10.908L13.1138 10.5675V10.5675L13.782 10.908ZM13.782 4.09202L13.1138 4.43251V4.43251L13.782 4.09202ZM12.908 3.21799L12.5675 3.88624L12.5675 3.88624L12.908 3.21799ZM3.09202 3.21799L2.75153 2.54973L2.75153 2.54973L3.09202 3.21799ZM2.75 6.2C2.75 5.62757 2.75058 5.24336 2.77476 4.94748C2.79822 4.66035 2.8401 4.52307 2.88624 4.43251L1.54973 3.75153C1.37789 4.08879 1.31078 4.44545 1.27974 4.82533C1.24942 5.19646 1.25 5.65232 1.25 6.2H2.75ZM2.75 8.8V6.2H1.25V8.8H2.75ZM2.88624 10.5675C2.8401 10.4769 2.79822 10.3396 2.77476 10.0525C2.75058 9.75664 2.75 9.37243 2.75 8.8H1.25C1.25 9.34768 1.24942 9.80354 1.27974 10.1747C1.31078 10.5546 1.37789 10.9112 1.54973 11.2485L2.88624 10.5675ZM3.43251 11.1138C3.19731 10.9939 3.00608 10.8027 2.88624 10.5675L1.54973 11.2485C1.81338 11.7659 2.23408 12.1866 2.75153 12.4503L3.43251 11.1138ZM5.2 11.25C4.62757 11.25 4.24336 11.2494 3.94748 11.2252C3.66035 11.2018 3.52307 11.1599 3.43251 11.1138L2.75153 12.4503C3.08879 12.6221 3.44545 12.6892 3.82533 12.7203C4.19646 12.7506 4.65232 12.75 5.2 12.75V11.25ZM6.8453 11.25H5.2V12.75H6.8453V11.25ZM6.19578 12.375L7.30718 14.3L8.60622 13.55L7.49482 11.625L6.19578 12.375ZM7.30718 14.3C7.6151 14.8333 8.3849 14.8333 8.69282 14.3L7.39378 13.55C7.66321 13.0833 8.33679 13.0833 8.60622 13.55L7.30718 14.3ZM8.69282 14.3L9.80422 12.375L8.50518 11.625L7.39378 13.55L8.69282 14.3ZM10.8 11.25H9.1547V12.75H10.8V11.25ZM12.5675 11.1138C12.4769 11.1599 12.3396 11.2018 12.0525 11.2252C11.7566 11.2494 11.3724 11.25 10.8 11.25V12.75C11.3477 12.75 11.8035 12.7506 12.1747 12.7203C12.5546 12.6892 12.9112 12.6221 13.2485 12.4503L12.5675 11.1138ZM13.1138 10.5675C12.9939 10.8027 12.8027 10.9939 12.5675 11.1138L13.2485 12.4503C13.7659 12.1866 14.1866 11.7659 14.4503 11.2485L13.1138 10.5675ZM13.25 8.8C13.25 9.37243 13.2494 9.75664 13.2252 10.0525C13.2018 10.3396 13.1599 10.4769 13.1138 10.5675L14.4503 11.2485C14.6221 10.9112 14.6892 10.5546 14.7203 10.1747C14.7506 9.80354 14.75 9.34768 14.75 8.8H13.25ZM13.25 6.2V8.8H14.75V6.2H13.25ZM13.1138 4.43251C13.1599 4.52307 13.2018 4.66035 13.2252 4.94748C13.2494 5.24336 13.25 5.62757 13.25 6.2H14.75C14.75 5.65232 14.7506 5.19646 14.7203 4.82533C14.6892 4.44545 14.6221 4.08879 14.4503 3.75153L13.1138 4.43251ZM12.5675 3.88624C12.8027 4.00608 12.9939 4.19731 13.1138 4.43251L14.4503 3.75153C14.1866 3.23408 13.7659 2.81338 13.2485 2.54973L12.5675 3.88624ZM10.8 3.75C11.3724 3.75 11.7566 3.75058 12.0525 3.77476C12.3396 3.79822 12.4769 3.8401 12.5675 3.88624L13.2485 2.54973C12.9112 2.37789 12.5546 2.31078 12.1747 2.27974C11.8035 2.24942 11.3477 2.25 10.8 2.25V3.75ZM5.2 3.75H10.8V2.25H5.2V3.75ZM3.43251 3.88624C3.52307 3.8401 3.66035 3.79822 3.94748 3.77476C4.24336 3.75058 4.62757 3.75 5.2 3.75V2.25C4.65232 2.25 4.19646 2.24942 3.82533 2.27974C3.44545 2.31078 3.08879 2.37789 2.75153 2.54973L3.43251 3.88624ZM2.88624 4.43251C3.00608 4.19731 3.19731 4.00608 3.43251 3.88624L2.75153 2.54973C2.23408 2.81338 1.81338 3.23408 1.54973 3.75153L2.88624 4.43251Z" fill="#616161"/>
</svg>
