<svg width="20" height="20" viewBox="0 0 20 20" fill="none" xmlns="http://www.w3.org/2000/svg">
<path d="M2.77248 5.11502L3.6078 5.54064L2.77248 5.11502ZM2.77248 13.635L1.93717 14.0606H1.93717L2.77248 13.635ZM3.86502 14.7275L4.29064 13.8922H4.29064L3.86502 14.7275ZM8.55662 15L9.36852 14.5312C9.20105 14.2412 8.89156 14.0625 8.55662 14.0625V15ZM9.94587 17.4062L10.7578 16.9375L9.94587 17.4062ZM10.0541 17.4062L9.24223 16.9375L10.0541 17.4062ZM11.4434 15V14.0625C11.1084 14.0625 10.7989 14.2412 10.6315 14.5312L11.4434 15ZM16.135 14.7275L15.7094 13.8922L16.135 14.7275ZM17.2275 13.635L16.3922 13.2094L17.2275 13.635ZM17.2275 5.11502L16.3922 5.54064V5.54064L17.2275 5.11502ZM16.135 4.02248L16.5606 3.18717V3.18717L16.135 4.02248ZM3.86502 4.02248L4.29064 4.8578L3.86502 4.02248ZM3.4375 7.75C3.4375 7.03446 3.43823 6.5542 3.46845 6.18435C3.49777 5.82544 3.55012 5.65384 3.6078 5.54064L1.93717 4.68941C1.72236 5.11099 1.63847 5.55681 1.59967 6.03166C1.56177 6.49557 1.5625 7.0654 1.5625 7.75H3.4375ZM3.4375 11V7.75H1.5625V11H3.4375ZM3.6078 13.2094C3.55012 13.0962 3.49777 12.9246 3.46845 12.5657C3.43823 12.1958 3.4375 11.7155 3.4375 11H1.5625C1.5625 11.6846 1.56177 12.2544 1.59967 12.7183C1.63847 13.1932 1.72236 13.639 1.93717 14.0606L3.6078 13.2094ZM4.29064 13.8922C3.99664 13.7424 3.7576 13.5034 3.6078 13.2094L1.93717 14.0606C2.26673 14.7074 2.7926 15.2333 3.43941 15.5628L4.29064 13.8922ZM6.5 14.0625C5.78446 14.0625 5.3042 14.0618 4.93435 14.0316C4.57544 14.0022 4.40384 13.9499 4.29064 13.8922L3.43941 15.5628C3.86099 15.7776 4.30681 15.8615 4.78166 15.9003C5.24557 15.9382 5.8154 15.9375 6.5 15.9375V14.0625ZM8.55662 14.0625H6.5V15.9375H8.55662V14.0625ZM7.74473 15.4688L9.13397 17.875L10.7578 16.9375L9.36852 14.5312L7.74473 15.4688ZM9.13397 17.875C9.51887 18.5417 10.4811 18.5417 10.866 17.875L9.24223 16.9375C9.57902 16.3542 10.421 16.3542 10.7578 16.9375L9.13397 17.875ZM10.866 17.875L12.2553 15.4688L10.6315 14.5312L9.24223 16.9375L10.866 17.875ZM13.5 14.0625H11.4434V15.9375H13.5V14.0625ZM15.7094 13.8922C15.5962 13.9499 15.4246 14.0022 15.0657 14.0316C14.6958 14.0618 14.2155 14.0625 13.5 14.0625V15.9375C14.1846 15.9375 14.7544 15.9382 15.2183 15.9003C15.6932 15.8615 16.139 15.7776 16.5606 15.5628L15.7094 13.8922ZM16.3922 13.2094C16.2424 13.5034 16.0034 13.7424 15.7094 13.8922L16.5606 15.5628C17.2074 15.2333 17.7333 14.7074 18.0628 14.0606L16.3922 13.2094ZM16.5625 11C16.5625 11.7155 16.5618 12.1958 16.5316 12.5657C16.5022 12.9246 16.4499 13.0962 16.3922 13.2094L18.0628 14.0606C18.2776 13.639 18.3615 13.1932 18.4003 12.7183C18.4382 12.2544 18.4375 11.6846 18.4375 11H16.5625ZM16.5625 7.75V11H18.4375V7.75H16.5625ZM16.3922 5.54064C16.4499 5.65384 16.5022 5.82544 16.5316 6.18435C16.5618 6.5542 16.5625 7.03446 16.5625 7.75H18.4375C18.4375 7.0654 18.4382 6.49557 18.4003 6.03166C18.3615 5.55681 18.2776 5.11099 18.0628 4.68941L16.3922 5.54064ZM15.7094 4.8578C16.0034 5.0076 16.2424 5.24664 16.3922 5.54064L18.0628 4.68941C17.7333 4.0426 17.2074 3.51673 16.5606 3.18717L15.7094 4.8578ZM13.5 4.6875C14.2155 4.6875 14.6958 4.68823 15.0657 4.71845C15.4246 4.74777 15.5962 4.80012 15.7094 4.8578L16.5606 3.18717C16.139 2.97236 15.6932 2.88847 15.2183 2.84967C14.7544 2.81177 14.1846 2.8125 13.5 2.8125V4.6875ZM6.5 4.6875H13.5V2.8125H6.5V4.6875ZM4.29064 4.8578C4.40384 4.80012 4.57544 4.74777 4.93435 4.71845C5.3042 4.68823 5.78446 4.6875 6.5 4.6875V2.8125C5.8154 2.8125 5.24557 2.81177 4.78166 2.84967C4.30681 2.88847 3.86099 2.97236 3.43941 3.18717L4.29064 4.8578ZM3.6078 5.54064C3.7576 5.24664 3.99664 5.0076 4.29064 4.8578L3.43941 3.18717C2.7926 3.51673 2.26673 4.0426 1.93717 4.68941L3.6078 5.54064Z" fill="#616161"/>
</svg>
