<svg width="24" height="24" viewBox="0 0 24 24" fill="none" xmlns="http://www.w3.org/2000/svg">
<path d="M7.70711 9.29289C7.31658 8.90237 6.68342 8.90237 6.29289 9.29289C5.90237 9.68342 5.90237 10.3166 6.29289 10.7071L7.70711 9.29289ZM17.7071 10.7071C18.0976 10.3166 18.0976 9.68342 17.7071 9.29289C17.3166 8.90237 16.6834 8.90237 16.2929 9.29289L17.7071 10.7071ZM6.29289 10.7071L11.2575 15.6718L12.6718 14.2575L7.70711 9.29289L6.29289 10.7071ZM12.7425 15.6718L17.7071 10.7071L16.2929 9.29289L11.3282 14.2575L12.7425 15.6718ZM11.2575 15.6718C11.6676 16.0818 12.3324 16.0818 12.7425 15.6718L11.3282 14.2575C11.6992 13.8865 12.3008 13.8865 12.6718 14.2575L11.2575 15.6718Z" fill="#929292"/>
</svg>
