<svg width="16" height="16" viewBox="0 0 16 16" fill="none" xmlns="http://www.w3.org/2000/svg">
<path d="M4.5 1.65625H11.5C13.0706 1.65625 14.3438 2.92944 14.3438 4.5V11.5C14.3438 13.0706 13.0706 14.3438 11.5 14.3438H8C4.49644 14.3438 1.65625 11.5036 1.65625 8V4.5C1.65625 2.92944 2.92944 1.65625 4.5 1.65625Z" stroke="#929292" stroke-width="1.3125"/>
<path d="M8 6.25V8.58333" stroke="#929292" stroke-width="1.3125" stroke-linecap="round"/>
<path d="M11.5 6.25V8.58333" stroke="#929292" stroke-width="1.3125" stroke-linecap="round"/>
<path d="M5.15625 6.25C5.15625 5.88756 4.86244 5.59375 4.5 5.59375C4.13756 5.59375 3.84375 5.88756 3.84375 6.25H5.15625ZM11.5 12.1562C11.8624 12.1562 12.1562 11.8624 12.1562 11.5C12.1562 11.1376 11.8624 10.8438 11.5 10.8438V12.1562ZM3.84375 6.25V8H5.15625V6.25H3.84375ZM8 12.1562H11.5V10.8438H8V12.1562ZM3.84375 8C3.84375 10.2954 5.70457 12.1562 8 12.1562V10.8438C6.42944 10.8438 5.15625 9.57056 5.15625 8H3.84375Z" fill="#929292"/>
</svg>
