<svg width="24" height="24" viewBox="0 0 24 24" fill="none" xmlns="http://www.w3.org/2000/svg">
<path d="M21.9999 12.225C21.9999 11.5667 21.9403 10.9417 21.8381 10.3333H12.217V14.0917H17.7257C17.4788 15.325 16.7551 16.3667 15.6823 17.075V19.575H18.9688C20.893 17.8333 21.9999 15.2667 21.9999 12.225Z" fill="#4285F4"/>
<path d="M12.2168 22C14.9755 22 17.2828 21.1 18.9686 19.575L15.6821 17.075C14.7626 17.675 13.5962 18.0417 12.2168 18.0417C9.55189 18.0417 7.29561 16.2834 6.48676 13.9084H3.09809V16.4834C4.77539 19.75 8.22366 22 12.2168 22Z" fill="#34A853"/>
<path d="M6.48701 13.9084C6.27415 13.3084 6.16346 12.6668 6.16346 12.0001C6.16346 11.3334 6.28266 10.6918 6.48701 10.0918V7.51676H3.09833C2.40017 8.86676 2 10.3834 2 12.0001C2 13.6168 2.40017 15.1334 3.09833 16.4834L6.48701 13.9084Z" fill="#FBBC05"/>
<path d="M12.2168 5.95833C13.7239 5.95833 15.0691 6.46666 16.1334 7.45833L19.0453 4.60833C17.2828 2.99167 14.9755 2 12.2168 2C8.22366 2 4.77539 4.25 3.09809 7.51666L6.48676 10.0917C7.29561 7.71666 9.55189 5.95833 12.2168 5.95833Z" fill="#EA4335"/>
</svg>
