<svg width="24" height="24" viewBox="0 0 24 24" fill="none" xmlns="http://www.w3.org/2000/svg">
<path d="M16.1337 7.45834C15.0694 6.46667 13.7242 5.95833 12.2171 5.95833C9.55217 5.95833 7.29589 7.71667 6.48703 10.0917C6.28269 10.6917 6.16347 11.3334 6.16347 12.0001C6.16347 12.6667 6.27415 13.3084 6.48699 13.9084C7.29585 16.2834 9.55217 18.0417 12.2171 18.0417C13.5964 18.0417 14.7629 17.675 15.6824 17.075C16.7552 16.3667 17.4789 15.325 17.7258 14.0917H12.2171V10.3333H21.8382C21.9404 10.9417 22 11.5667 22 12.225C22 15.2667 20.8931 17.8333 18.9689 19.575C17.2831 21.1 14.9758 22 12.2171 22C8.22396 22 4.77569 19.7501 3.09837 16.4834C2.4002 15.1334 2 13.6168 2 12.0001C2 10.3834 2.40017 8.86677 3.09834 7.51677C4.77565 4.2501 8.22394 2 12.2171 2C14.9758 2 17.2831 2.99167 19.0456 4.60834L16.1337 7.45834Z" fill="#292929"/>
</svg>
