<svg width="24" height="24" viewBox="0 0 24 24" fill="none" xmlns="http://www.w3.org/2000/svg">
<path d="M7.85846 2.06925C6.79445 2.11947 6.06772 2.2899 5.43267 2.53873C4.77528 2.79502 4.218 3.13847 3.66364 3.69511C3.10862 4.25207 2.76777 4.81033 2.51344 5.46838C2.2672 6.10505 2.10033 6.83212 2.05335 7.8968C2.0067 8.96343 1.996 9.30363 2.0012 12.0191C2.00638 14.7343 2.01836 15.0751 2.06923 16.1421C2.12009 17.2058 2.28988 17.9322 2.53872 18.5676C2.79532 19.225 3.13842 19.7819 3.69538 20.3366C4.25202 20.8913 4.8106 21.2319 5.46896 21.4865C6.10498 21.7325 6.83236 21.9 7.89671 21.9466C8.96332 21.9936 9.30383 22.004 12.0186 21.9988C14.7347 21.9936 15.0753 21.9816 16.1419 21.9311C17.2059 21.8802 17.932 21.7098 18.5677 21.4616C19.2251 21.2043 19.7823 20.8619 20.3367 20.3049C20.8911 19.7482 21.2319 19.1897 21.4863 18.5313C21.7325 17.8953 21.9 17.1679 21.9463 16.1042C21.993 15.0369 22.004 14.696 21.9988 11.9809C21.9936 9.26539 21.9813 8.92519 21.9308 7.8589C21.8802 6.79421 21.7098 6.06812 21.4613 5.43242C21.2044 4.77502 20.8616 4.21837 20.305 3.66336C19.7483 3.10898 19.1897 2.76748 18.5314 2.51379C17.895 2.26754 17.168 2.0997 16.1036 2.05369C15.037 2.00639 14.6965 1.99603 11.9807 2.00121C9.2656 2.00639 8.92509 2.01806 7.85846 2.06925V2.06925ZM7.97512 20.1468C7.00019 20.1043 6.47078 19.9423 6.11795 19.8066C5.65073 19.6258 5.31734 19.409 4.96645 19.0607C4.6162 18.7111 4.39879 18.3787 4.21638 17.9124C4.07932 17.5596 3.91441 17.0308 3.86873 16.0559C3.81915 15.0019 3.80782 14.6857 3.80296 12.0155C3.79778 9.34608 3.80749 9.02984 3.8535 7.97489C3.89529 7.0006 4.05828 6.47053 4.1937 6.11801C4.37449 5.65015 4.59059 5.31739 4.93955 4.96651C5.28914 4.61561 5.62157 4.39884 6.08813 4.21643C6.44064 4.07872 6.96942 3.9151 7.94401 3.86878C8.99863 3.81887 9.31453 3.80818 11.984 3.803C14.654 3.79781 14.9703 3.80721 16.0252 3.85355C16.9995 3.89599 17.5296 4.05735 17.8818 4.19375C18.3493 4.37454 18.6827 4.59001 19.0333 4.93961C19.3838 5.28921 19.6012 5.62099 19.7836 6.08853C19.9213 6.44007 20.085 6.96949 20.131 7.94378C20.1812 8.99842 20.1925 9.31464 20.1974 11.9841C20.2026 14.6542 20.1928 14.9705 20.1465 16.0248C20.1041 16.9997 19.9424 17.5295 19.8063 17.8826C19.6255 18.3495 19.4094 18.6829 19.0601 19.0338C18.7109 19.3834 18.3785 19.6015 17.9116 19.7839C17.5597 19.9213 17.0303 20.0852 16.0563 20.1315C15.0017 20.1811 14.6858 20.1925 12.0154 20.1973C9.34595 20.2025 9.03006 20.1925 7.97512 20.1468H7.97512ZM16.1273 6.65457C16.1286 7.31684 16.6671 7.85306 17.3293 7.85177C17.9919 7.85047 18.5281 7.3123 18.5272 6.65003C18.5259 5.98776 17.9874 5.45122 17.3248 5.45251C16.6622 5.45381 16.126 5.9923 16.1273 6.65457V6.65457ZM6.86542 12.0097C6.87092 14.8457 9.17424 17.1397 12.0096 17.1342C14.8452 17.1287 17.1404 14.826 17.1349 11.99C17.1294 9.15492 14.8258 6.85966 11.9898 6.86517C9.15446 6.87068 6.8599 9.17436 6.86542 12.0097V12.0097ZM8.66653 12.0062C8.66328 10.1655 10.153 8.6702 11.9934 8.66696C13.834 8.6634 15.3296 10.1525 15.3332 11.9935C15.3367 13.8345 13.847 15.3295 12.006 15.333C10.1657 15.3366 8.67009 13.8472 8.66653 12.0062" fill="#CFDCE6"/>
</svg>
