<svg width="24" height="24" viewBox="0 0 24 24" fill="none" xmlns="http://www.w3.org/2000/svg">
<path fill-rule="evenodd" clip-rule="evenodd" d="M12.7071 5.25126C14.3755 3.58291 17.0804 3.58291 18.7487 5.25126C20.4171 6.91961 20.4171 9.62454 18.7487 11.2929L15.7279 14.3137L17.1421 15.7279L20.1629 12.7071C22.6123 10.2577 22.6123 6.28645 20.1629 3.83705C17.7135 1.38765 13.7423 1.38765 11.2929 3.83705L8.27208 6.85786L9.68629 8.27208L12.7071 5.25126ZM8.27208 9.68629L6.85786 8.27208L3.83705 11.2929C1.38765 13.7423 1.38765 17.7136 3.83705 20.163C6.28645 22.6123 10.2577 22.6124 12.7071 20.163L15.7279 17.1421L14.3137 15.7279L11.2929 18.7487C9.62454 20.4171 6.91961 20.4171 5.25126 18.7487C3.58291 17.0804 3.58291 14.3755 5.25126 12.7071L8.27208 9.68629Z" fill="#525E66"/>
<path d="M8 16L16 8" stroke="#525E66" stroke-width="2" stroke-linecap="round"/>
</svg>
