<svg width="24" height="24" viewBox="0 0 24 24" fill="none" xmlns="http://www.w3.org/2000/svg">
<path d="M5 16.1429C5 15.0805 5 14.5493 5.10029 14.1099C5.44219 12.6119 6.61193 11.4422 8.10992 11.1003C8.54931 11 9.08049 11 10.1429 11H13.8571C14.9195 11 15.4507 11 15.8901 11.1003C17.3881 11.4422 18.5578 12.6119 18.8997 14.1099C19 14.5493 19 15.0805 19 16.1429V16.1429C19 16.9396 19 17.338 18.9248 17.6676C18.6684 18.7911 17.7911 19.6684 16.6676 19.9248C16.338 20 15.9396 20 15.1429 20H8.85714C8.06037 20 7.66198 20 7.33244 19.9248C6.20895 19.6684 5.33164 18.7911 5.07522 17.6676C5 17.338 5 16.9396 5 16.1429V16.1429Z" fill="#929292" stroke="#929292" stroke-width="2"/>
<path d="M8 11V8C8 6.66667 8.8 4 12 4C15.2 4 16 6.66667 16 8V11" stroke="#929292" stroke-width="2" stroke-linecap="round"/>
</svg>
