<svg width="16" height="16" viewBox="0 0 16 16" fill="none" xmlns="http://www.w3.org/2000/svg">
<path d="M12.75 6.5V12.25H3.25V6.5C3.25 3.87665 5.37665 1.75 8 1.75C10.6234 1.75 12.75 3.87665 12.75 6.5Z" stroke="#525E66" stroke-width="1.5"/>
<line x1="1.75" y1="12.25" x2="14.25" y2="12.25" stroke="#525E66" stroke-width="1.5" stroke-linecap="round"/>
<path d="M10 13C10 13.2626 9.94827 13.5227 9.84776 13.7654C9.74725 14.008 9.59993 14.2285 9.41421 14.4142C9.2285 14.5999 9.00802 14.7472 8.76537 14.8478C8.52272 14.9483 8.26264 15 8 15C7.73736 15 7.47728 14.9483 7.23463 14.8478C6.99198 14.7472 6.7715 14.5999 6.58579 14.4142C6.40007 14.2285 6.25275 14.008 6.15224 13.7654C6.05173 13.5227 6 13.2626 6 13L8 13H10Z" fill="#525E66"/>
</svg>
