<svg width="24" height="24" viewBox="0 0 24 24" fill="none" xmlns="http://www.w3.org/2000/svg">
<path d="M22 12C22 17.525 17.525 22 12 22C6.475 22 2 17.525 2 12C2 6.475 6.475 2 12 2C17.525 2 22 6.475 22 12ZM10.17 17.275C14.605 17.275 17.03 13.6 17.03 10.415C17.03 10.31 17.03 10.205 17.025 10.105C17.495 9.765 17.905 9.34 18.23 8.855C17.8 9.045 17.335 9.175 16.845 9.235C17.345 8.935 17.725 8.465 17.905 7.9C17.44 8.175 16.925 8.375 16.375 8.485C15.935 8.015 15.31 7.725 14.615 7.725C13.285 7.725 12.205 8.805 12.205 10.135C12.205 10.325 12.225 10.51 12.27 10.685C10.265 10.585 8.49 9.625 7.3 8.165C7.095 8.52 6.975 8.935 6.975 9.375C6.975 10.21 7.4 10.95 8.05 11.38C7.655 11.37 7.285 11.26 6.96 11.08C6.96 11.09 6.96 11.1 6.96 11.11C6.96 12.28 7.79 13.25 8.895 13.475C8.695 13.53 8.48 13.56 8.26 13.56C8.105 13.56 7.955 13.545 7.805 13.515C8.11 14.475 9 15.17 10.055 15.19C9.23 15.835 8.19 16.22 7.06 16.22C6.865 16.22 6.675 16.21 6.485 16.185C7.54 16.875 8.81 17.275 10.17 17.275Z" fill="#CFDCE6"/>
</svg>
