<svg width="24" height="24" viewBox="0 0 24 24" fill="none" xmlns="http://www.w3.org/2000/svg">
<path d="M12 22C17.5228 22 22 17.5228 22 12C22 6.47715 17.5228 2 12 2C6.47715 2 2 6.47715 2 12C2 17.5228 6.47715 22 12 22Z" fill="#1B9DF0"/>
<path d="M10.17 17.275C14.605 17.275 17.03 13.6 17.03 10.415C17.03 10.31 17.03 10.205 17.025 10.105C17.495 9.76501 17.905 9.34001 18.23 8.85501C17.8 9.04501 17.335 9.17501 16.845 9.23501C17.345 8.93501 17.725 8.46501 17.905 7.90001C17.44 8.17501 16.925 8.37501 16.375 8.48501C15.935 8.01501 15.31 7.72501 14.615 7.72501C13.285 7.72501 12.205 8.80501 12.205 10.135C12.205 10.325 12.225 10.51 12.27 10.685C10.265 10.585 8.49 9.62501 7.3 8.16501C7.095 8.52001 6.975 8.93501 6.975 9.37501C6.975 10.21 7.4 10.95 8.05 11.38C7.655 11.37 7.285 11.26 6.96 11.08C6.96 11.09 6.96 11.1 6.96 11.11C6.96 12.28 7.79 13.25 8.895 13.475C8.695 13.53 8.48 13.56 8.26 13.56C8.105 13.56 7.955 13.545 7.805 13.515C8.11 14.475 9 15.17 10.055 15.19C9.23 15.835 8.19 16.22 7.06 16.22C6.865 16.22 6.675 16.21 6.485 16.185C7.54 16.875 8.81 17.275 10.17 17.275Z" fill="white"/>
</svg>
