<svg width="24" height="24" viewBox="0 0 24 24" fill="none" xmlns="http://www.w3.org/2000/svg">
<path fill-rule="evenodd" clip-rule="evenodd" d="M20.5953 4.75972C21.5418 5.01273 22.2873 5.75819 22.5403 6.70474C23 8.42041 23 12 23 12C23 12 23 15.5796 22.5403 17.2953C22.2873 18.2418 21.5418 18.9873 20.5953 19.2403C18.8796 19.7 12 19.7 12 19.7C12 19.7 5.12041 19.7 3.40474 19.2403C2.45819 18.9873 1.71272 18.2418 1.45971 17.2953C1 15.5796 1 12 1 12C1 12 1 8.42041 1.45971 6.70474C1.71273 5.75819 2.45819 5.01273 3.40474 4.75972C5.12041 4.3 12 4.3 12 4.3C12 4.3 18.8796 4.3 20.5953 4.75972ZM15.5155 12.0001L9.79999 15.3V8.69999L15.5155 12.0001Z" fill="#CFDCE6"/>
</svg>
