<svg width="24" height="24" viewBox="0 0 24 24" fill="none" xmlns="http://www.w3.org/2000/svg">
<path d="M22.5403 6.70474C22.2873 5.75819 21.5418 5.01273 20.5953 4.75972C18.8796 4.3 12 4.3 12 4.3C12 4.3 5.12041 4.3 3.40474 4.75972C2.45819 5.01273 1.71273 5.75819 1.45971 6.70474C1 8.42041 1 12 1 12C1 12 1 15.5796 1.45971 17.2953C1.71272 18.2418 2.45819 18.9873 3.40474 19.2403C5.12041 19.7 12 19.7 12 19.7C12 19.7 18.8796 19.7 20.5953 19.2403C21.5418 18.9873 22.2873 18.2418 22.5403 17.2953C23 15.5796 23 12 23 12C23 12 23 8.42041 22.5403 6.70474V6.70474Z" fill="#FF0000"/>
<path d="M9.79999 15.3L15.5155 12.0001L9.79999 8.69999V15.3Z" fill="white"/>
</svg>
