<svg width="24" height="24" viewBox="0 0 24 24" fill="none" xmlns="http://www.w3.org/2000/svg">
<path d="M21.9999 12.225C21.9999 11.5667 21.9403 10.9417 21.8381 10.3333H12.217V14.0917H17.7258C17.4788 15.325 16.7551 16.3667 15.6823 17.075V19.575H18.9688C20.8931 17.8333 21.9999 15.2667 21.9999 12.225Z" fill="#4285F4"/>
<path d="M12.2169 22C14.9755 22 17.2829 21.1 18.9687 19.575L15.6822 17.075C14.7627 17.675 13.5962 18.0417 12.2169 18.0417C9.55195 18.0417 7.29567 16.2834 6.48682 13.9084H3.09814V16.4834C4.77545 19.75 8.22372 22 12.2169 22Z" fill="#34A853"/>
<path d="M6.48701 13.9084C6.27415 13.3084 6.16347 12.6668 6.16347 12.0001C6.16347 11.3334 6.28267 10.6918 6.48701 10.0918V7.51676H3.09834C2.40017 8.86676 2 10.3834 2 12.0001C2 13.6168 2.40017 15.1334 3.09834 16.4834L6.48701 13.9084Z" fill="#FBBC05"/>
<path d="M12.2169 5.95833C13.7239 5.95833 15.0692 6.46666 16.1335 7.45833L19.0453 4.60833C17.2829 2.99167 14.9755 2 12.2169 2C8.22372 2 4.77545 4.25 3.09814 7.51666L6.48682 10.0917C7.29567 7.71666 9.55195 5.95833 12.2169 5.95833Z" fill="#EA4335"/>
</svg>
