<svg width="16" height="16" viewBox="0 0 16 16" fill="none" xmlns="http://www.w3.org/2000/svg">
<circle cx="8" cy="8" r="6.25" stroke="#525E66" stroke-width="1.5"/>
<path d="M10.25 8C10.25 9.85636 9.92607 11.5014 9.43196 12.6543C9.18434 13.2321 8.90874 13.6518 8.64091 13.9161C8.3763 14.1772 8.16059 14.25 8 14.25C7.83941 14.25 7.6237 14.1772 7.35909 13.9161C7.09126 13.6518 6.81566 13.2321 6.56804 12.6543C6.07393 11.5014 5.75 9.85636 5.75 8C5.75 6.14364 6.07393 4.49861 6.56804 3.34569C6.81566 2.7679 7.09126 2.34823 7.35909 2.08391C7.6237 1.82276 7.83941 1.75 8 1.75C8.16059 1.75 8.3763 1.82276 8.64091 2.08391C8.90874 2.34823 9.18434 2.7679 9.43196 3.34569C9.92607 4.49861 10.25 6.14364 10.25 8Z" stroke="#525E66" stroke-width="1.5"/>
<path d="M2 8H14" stroke="#525E66" stroke-width="1.5"/>
</svg>
