<svg width="24" height="24" viewBox="0 0 24 24" fill="none" xmlns="http://www.w3.org/2000/svg">
<path d="M20.9513 5.31464L20 5.00645C20.9513 5.31464 20.9513 5.31482 20.9512 5.315L20.9511 5.3154L20.9508 5.31631L20.95 5.31862L20.9479 5.32513L20.9411 5.34553C20.9354 5.36233 20.9275 5.38547 20.9174 5.41434C20.8971 5.47205 20.8678 5.55294 20.8296 5.6522C20.7535 5.85016 20.6409 6.12422 20.4925 6.43512C20.257 6.92871 19.9116 7.55781 19.4518 8.12435C20.4488 16.8904 10.9802 23.3242 3.43658 18.1797C3.06697 17.9277 2.90975 17.4608 3.05159 17.0365C3.19344 16.6122 3.59983 16.3338 4.04672 16.3547C4.9873 16.3986 5.9182 16.2239 6.74403 15.857C3.35802 13.739 1.943 9.09743 3.91577 5.36254C4.07208 5.06661 4.36607 4.86849 4.69903 4.8347C5.032 4.80091 5.35979 4.93592 5.57237 5.19442C6.90832 6.81894 8.87042 7.85663 10.9136 8.08044C11.0594 4.5791 15.1232 2.78426 17.9 4.9337C17.9361 4.9228 17.9754 4.91011 18.0177 4.89538C18.2282 4.82216 18.4582 4.71911 18.68 4.60733C18.8994 4.49674 19.0964 4.385 19.2389 4.30052C19.3097 4.25855 19.366 4.22398 19.4036 4.20053L19.4451 4.17433L19.4543 4.16848L19.4551 4.16795C19.4552 4.1679 19.4552 4.16786 19.4553 4.16782M20.9513 5.31464L19.4553 4.16782M20.9513 5.31464C21.0818 4.91176 20.9444 4.47035 20.6083 4.21274C20.2722 3.95518 19.8104 3.93719 19.4553 4.16782M20.9513 5.31464L19.4553 4.16782" stroke="white" stroke-width="2" stroke-linecap="round" stroke-linejoin="round"/>
</svg>
